<svg width="24" height="24" viewBox="0 0 24 24" fill="none" xmlns="http://www.w3.org/2000/svg">
<rect width="24" height="24" rx="12" fill="white"/>
<path d="M11.9998 17.6294C11.819 17.6294 11.644 17.6061 11.4982 17.5536C9.26984 16.7894 5.729 14.0769 5.729 10.0694C5.729 8.02776 7.37984 6.37109 9.40984 6.37109C10.3957 6.37109 11.3173 6.75609 11.9998 7.44443C12.6823 6.75609 13.604 6.37109 14.5898 6.37109C16.6198 6.37109 18.2707 8.03359 18.2707 10.0694C18.2707 14.0828 14.7298 16.7894 12.5015 17.5536C12.3557 17.6061 12.1807 17.6294 11.9998 17.6294ZM9.40984 7.24609C7.864 7.24609 6.604 8.51193 6.604 10.0694C6.604 14.0536 10.4365 16.2703 11.784 16.7311C11.889 16.7661 12.1165 16.7661 12.2215 16.7311C13.5632 16.2703 17.4015 14.0594 17.4015 10.0694C17.4015 8.51193 16.1415 7.24609 14.5957 7.24609C13.709 7.24609 12.8865 7.66026 12.3557 8.37776C12.1923 8.59943 11.819 8.59943 11.6557 8.37776C11.1132 7.65443 10.2965 7.24609 9.40984 7.24609Z" fill="#101010"/>
</svg>
